<svg width="266" height="34" viewBox="0 0 266 34" fill="none" xmlns="http://www.w3.org/2000/svg">
<g clip-path="url(#clip0)">
<path d="M0 32.0677C0 30.9233 1.20949 29.9216 2.1632 29.5294L2.60168 29.8503C2.49206 30.7094 2.45552 31.1016 2.45552 31.672C2.45552 32.5668 2.67476 33.1016 3.51885 33.1016C7.18386 33.1016 9.01453 24.8414 10.9219 14.5811C11.2508 12.7594 11.5833 11.4367 11.5833 10.9697C11.5833 10.7914 11.5102 10.5062 10.9987 10.4349C10.1546 10.328 9.168 10.2923 8.61624 10.2567L8.50662 10.1497L8.61624 9.50446H12.0985C13.6296 3.75401 16.4542 0 20.2251 0C22.3153 0 23.1922 0.787879 23.1922 1.75045C23.1922 2.85918 22.0193 4.00356 20.956 4.50267L20.5175 4.25312C20.6271 3.53654 20.7367 2.93048 20.7367 2.32086C20.7367 1.49733 20.554 0.891266 19.6368 0.891266C17.2544 0.891266 16.0084 5.3262 15.2045 9.50802H18.7599V10.1533L18.6137 10.2602C17.2581 10.3672 16.4505 10.4029 15.5005 10.5098C15.2081 10.5455 14.9889 10.6524 14.9158 11.0089C14.8062 11.508 14.7331 11.9037 14.66 12.3672C12.7892 22.9519 9.01453 34 3.04017 34C0.990247 34 0 33.2121 0 32.0677Z" fill="#FFFDEC"/>
<path d="M17.0427 19.3404C17.0427 14.2638 20.927 9.15149 25.9842 9.15149C29.6492 9.15149 31.626 11.5472 31.626 14.7985C31.626 19.9465 27.5956 24.9875 22.7211 24.9875C19.2023 24.9911 17.0427 22.7736 17.0427 19.3404ZM28.6224 14.0499C28.6224 11.2977 27.961 10.0107 26.0207 10.0107C21.698 10.0107 20.0464 17.1978 20.0464 20.164C20.0464 22.7023 20.5945 24.1319 22.6846 24.1319C26.8612 24.1319 28.6224 17.1586 28.6224 14.0499Z" fill="#FFFDEC"/>
<path d="M32.3966 24.4885L34.4502 16.2675C34.8887 14.517 35.3673 12.1926 35.3673 11.3691C35.3673 10.296 34.1944 10.296 32.9118 10.2604L32.8022 10.1534L32.9484 9.50812H35.2212C36.6865 9.50812 38.0056 9.36552 39.2516 9.11597L39.3612 9.25857C38.9593 10.4386 36.723 17.7327 36.3941 18.7666L36.5403 18.8735C39.617 12.0821 41.8167 9.14805 44.1261 9.14805C45.5183 9.14805 45.9933 10.0429 45.9933 11.2229C45.9933 11.3299 45.9933 11.4368 45.9933 11.4725L45.6645 11.7577C41.159 11.9716 39.1054 14.9769 37.198 19.337C36.5001 20.9092 35.9155 23.2693 35.5501 24.5206L35.4404 24.6276H32.5099L32.3966 24.4885Z" fill="#FFFDEC"/>
<path d="M80.9811 19.1622C79.8082 21.4153 77.9775 23.9537 76.6584 23.9537C76.2199 23.9537 76.0372 23.6328 76.0372 23.0945C76.0372 21.1622 78.2369 14.9447 79.5926 9.65062L79.483 9.50802H76.2966L76.1139 9.65062C75.4927 12.0463 75.1602 13.262 73.8411 16.0499C72.3393 19.1943 69.1493 23.8431 66.9532 23.8431C66.3686 23.8431 65.9264 23.4153 65.9264 22.5918C65.9264 19.8752 69.9934 12.7594 70.1761 9.25847L70.0665 9.11586C68.8204 9.36542 67.611 9.50802 65.5208 9.50802H63.4709H59.9155C60.7231 5.3262 61.9691 0.891266 64.3479 0.891266C65.2651 0.891266 65.4478 1.49733 65.4478 2.32086C65.4478 2.92692 65.3381 3.53654 65.2285 4.25312L65.667 4.50267C66.7303 4.00356 67.9033 2.85918 67.9033 1.75045C67.9033 0.784314 67.0227 0 64.9362 0C61.1616 0 58.3406 3.75401 56.8023 9.50802H53.32L53.2104 10.1533L53.32 10.2602C53.8681 10.2959 54.8583 10.3316 55.7024 10.4385C56.214 10.5098 56.2871 10.795 56.2871 10.9733C56.2871 11.4367 55.9582 12.7594 55.6257 14.5847C53.7219 24.8449 51.8876 33.1052 48.2226 33.1052C47.3785 33.1052 47.1593 32.5704 47.1593 31.6756C47.1593 31.1052 47.1958 30.7094 47.3054 29.8538L46.8669 29.533C45.9132 29.9251 44.7037 30.9269 44.7037 32.0713C44.7037 33.2157 45.694 34.0036 47.7439 34.0036C53.7183 34.0036 57.4892 22.9554 59.3601 12.3743C59.4332 11.9109 59.5063 11.5152 59.6159 11.016C59.689 10.6595 59.9082 10.5526 60.2005 10.5169C61.0666 10.4207 61.8156 10.3815 62.963 10.2923L63.8656 10.2638C64.231 10.2638 64.8923 10.2995 65.2943 10.3708C65.9557 10.4777 66.3576 10.7986 66.3576 11.4438C66.3576 14.0535 63.1713 18.8093 63.1713 21.8111C63.1713 23.9572 64.4904 24.9947 66.3211 24.9947C69.1785 24.9947 72.036 21.8111 75.1529 15.3405L75.2991 15.4118C74.1627 18.7736 73.6146 20.4884 73.6146 22.0606C73.6146 23.918 74.5317 24.9911 76.1797 24.9911C78.0104 24.9911 79.7716 23.1337 81.6388 19.5223L80.9811 19.1622Z" fill="#FFFDEC"/>
<path d="M110.736 19.1622C109.563 21.4153 107.733 23.9536 106.413 23.9536C105.975 23.9536 105.792 23.6328 105.792 23.0945C105.792 21.1622 107.992 14.9447 109.348 9.6506L109.238 9.508H106.052L105.869 9.6506C105.244 12.0463 104.915 13.262 103.596 16.0499C102.094 19.1943 98.9044 23.8431 96.7084 23.8431C96.1237 23.8431 95.6816 23.4153 95.6816 22.5918C95.6816 19.8752 99.7485 12.7593 99.9312 9.25844L99.8216 9.11584C98.5756 9.3654 97.3661 9.508 95.276 9.508H92.6743H92.4952H88.8266L90.3649 4.00354H89.7036C88.0921 7.7932 86.4807 9.04454 83.3638 9.508L83.2176 10.1533L83.3272 10.2602C83.8388 10.2602 85.0848 10.3672 85.7097 10.4741C84.0252 16.9804 82.8157 20.164 82.8157 22.057C82.8157 23.9893 83.879 24.9875 85.6731 24.9875C87.5769 24.9875 89.4843 23.5579 91.4611 19.5187L90.7998 19.1622C89.371 21.9501 87.6134 23.9893 86.1445 23.9893C85.6329 23.9893 85.4466 23.6328 85.4466 23.0232C85.4466 22.057 86.1043 19.7682 86.6195 17.7682L88.4502 10.9768C88.5598 10.6203 88.706 10.5133 89.0751 10.4777C89.466 10.4456 91.3442 10.3315 92.2541 10.2781L93.617 10.2602C93.9824 10.2602 94.6438 10.2959 95.0458 10.3672C95.7071 10.4741 96.1091 10.795 96.1091 11.4403C96.1091 14.0499 92.9228 18.8057 92.9228 21.8075C92.9228 23.9536 94.2419 24.9911 96.0726 24.9911C98.93 24.9911 101.787 21.8075 104.904 15.3369L105.051 15.4082C103.914 18.77 103.366 20.4848 103.366 22.057C103.366 23.9144 104.283 24.9875 105.931 24.9875C107.762 24.9875 109.523 23.1301 111.39 19.5187L110.736 19.1622Z" fill="#FFFDEC"/>
<path d="M112.53 24.4885L114.584 16.2675C115.022 14.517 115.501 12.1926 115.501 11.3691C115.501 10.296 114.328 10.296 113.045 10.2604L112.936 10.1534L113.082 9.50812H115.355C116.82 9.50812 118.139 9.36552 119.385 9.11597L119.495 9.25857C119.093 10.4386 116.856 17.7327 116.528 18.7666L116.674 18.8735C119.75 12.0821 121.95 9.14805 124.26 9.14805C125.652 9.14805 126.127 10.0429 126.127 11.2229C126.127 11.3299 126.127 11.4368 126.127 11.4725L125.798 11.7577C121.292 11.9716 119.239 14.9769 117.335 19.337C116.637 20.9092 116.053 23.2693 115.687 24.5206L115.578 24.6276H112.647L112.53 24.4885Z" fill="#FFFDEC"/>
<path d="M124.369 19.4474C124.369 14.1212 129.353 9.15149 133.932 9.15149C135.949 9.15149 137.414 10.082 137.414 11.8324C137.414 15.0125 133.53 17.4438 128.326 17.8039C128.07 17.8039 127.851 17.8395 127.592 17.8395C127.482 18.4456 127.446 19.0552 127.446 19.6256C127.446 22.4848 128.326 23.9501 130.193 23.9501C132.466 23.9501 134.589 21.9822 136.022 19.8396L136.643 20.2674C134.995 22.8413 132.686 24.9875 129.426 24.9875C126.492 24.9911 124.369 23.0588 124.369 19.4474ZM127.738 17.1943C132.503 16.2638 135.031 13.262 135.031 11.4367C135.031 10.328 134.333 10.0428 133.676 10.0428C131.111 10.0463 128.582 13.5864 127.738 17.1943Z" fill="#FFFDEC"/>
<path d="M144.046 24.4885L146.1 16.2675C146.538 14.517 147.017 12.1926 147.017 11.3691C147.017 10.296 145.844 10.296 144.561 10.2604L144.452 10.1534L144.598 9.50812H146.871C148.336 9.50812 149.655 9.36552 150.901 9.11597L151.011 9.25857C150.609 10.4386 148.373 17.7327 148.044 18.7666L148.19 18.8735C151.267 12.0821 153.466 9.14805 155.776 9.14805C157.168 9.14805 157.643 10.0429 157.643 11.2229C157.643 11.3299 157.643 11.4368 157.643 11.4725L157.314 11.7577C152.809 11.9716 150.755 14.9769 148.848 19.337C148.15 20.9092 147.565 23.2693 147.2 24.5206L147.09 24.6276H144.16L144.046 24.4885Z" fill="#FFFDEC"/>
<path d="M156.616 19.4474C156.616 14.1212 161.6 9.15149 166.178 9.15149C168.196 9.15149 169.661 10.082 169.661 11.8324C169.661 15.0125 165.777 17.4438 160.573 17.8039C160.317 17.8039 160.098 17.8395 159.842 17.8395C159.733 18.4456 159.696 19.0552 159.696 19.6256C159.696 22.4848 160.577 23.9002 162.444 23.9501C166.036 24.0499 172.233 16.606 173.662 14.4599L173.87 15.451C172.222 18.0249 166.909 24.9875 161.673 24.9875C158.739 24.9911 156.616 23.0588 156.616 19.4474ZM159.985 17.1943C164.75 16.2638 167.278 13.262 167.278 11.4367C167.278 10.328 166.58 10.0428 165.923 10.0428C163.358 10.0463 160.829 13.5864 159.985 17.1943Z" fill="#FFFDEC"/>
<path d="M162.551 32.0677C162.551 30.9233 163.76 29.9216 164.714 29.5294L165.152 29.8503C165.043 30.7094 165.006 31.1016 165.006 31.672C165.006 32.5668 165.225 33.1016 166.069 33.1016C169.734 33.1016 171.565 24.8414 173.472 14.5811C173.801 12.7594 174.134 11.4367 174.134 10.9697C174.134 10.7914 174.061 10.5062 173.549 10.4349C172.705 10.328 171.719 10.2923 171.167 10.2567L171.057 10.1497L171.167 9.50446H174.649C176.18 3.75401 179.005 0 182.776 0C184.866 0 185.743 0.787879 185.743 1.75045C185.743 2.85918 184.57 4.00356 183.507 4.50267L183.068 4.25312C183.178 3.53654 183.287 2.93048 183.287 2.32086C183.287 1.49733 183.105 0.891266 182.187 0.891266C179.805 0.891266 178.559 5.3262 177.755 9.50802H181.31V10.1533L181.164 10.2602C179.809 10.3672 179.001 10.4029 178.051 10.5098C177.759 10.5455 177.539 10.6524 177.466 11.0089C177.357 11.508 177.284 11.9037 177.211 12.3672C175.343 22.9483 171.569 33.9964 165.594 33.9964C163.541 34 162.551 33.2121 162.551 32.0677Z" fill="#FFFDEC"/>
<path d="M193.884 24.4885L195.937 16.2675C196.376 14.517 196.855 12.1926 196.855 11.3691C196.855 10.296 195.682 10.296 194.399 10.2604L194.29 10.1534L194.436 9.50812H196.709C198.174 9.50812 199.493 9.36552 200.739 9.11597L200.849 9.25857C200.447 10.4386 198.21 17.7327 197.881 18.7666L198.028 18.8735C201.104 12.0821 203.304 9.14805 205.613 9.14805C207.006 9.14805 207.481 10.0429 207.481 11.2229C207.481 11.3299 207.481 11.4368 207.481 11.4725L207.152 11.7577C202.646 11.9716 200.593 14.9769 198.689 19.337C197.991 20.9092 197.406 23.2693 197.041 24.5206L196.931 24.6276H194.001L193.884 24.4885Z" fill="#FFFDEC"/>
<path d="M231.148 22.1997C231.148 18.8735 234.48 14.3709 234.48 11.5473C234.48 10.5812 234.078 10.2247 233.417 10.2247C231.035 10.2247 227.592 15.3727 226.31 18.0536C224.954 20.8415 224.516 22.5598 224.001 24.5242L223.854 24.6311H220.924L220.814 24.4885L222.868 16.2675C223.416 14.05 223.785 12.157 223.785 11.3691C223.785 10.7238 223.42 10.4743 222.831 10.3673C222.466 10.296 221.731 10.2604 221.329 10.2604L221.22 10.1534L221.366 9.50812H223.602C225.068 9.50812 226.423 9.36552 227.669 9.11597L227.779 9.25857C227.377 10.4386 225.141 17.7327 224.812 18.7666L224.958 18.8735C227.962 12.6882 230.786 9.14805 234.046 9.14805C235.913 9.14805 237.159 10.2924 237.159 12.3637C237.159 15.9395 233.64 20.7666 233.64 23.1623C233.64 23.8432 234.005 23.9502 234.265 23.9502C235.255 23.9502 236.903 22.485 238.661 19.1587L239.358 19.5153C236.903 24.2354 234.999 24.9841 233.68 24.9841C232.361 24.9841 231.148 24.1677 231.148 22.1997Z" fill="#FFFDEC"/>
<path d="M238.883 19.5187C238.883 14.1925 243.685 9.15149 248.778 9.15149C251.672 9.15149 252.699 10.2602 252.699 11.3333C252.699 12.9412 251.015 14.0142 250.317 14.2638L249.805 13.9073C250.061 12.9055 250.171 12.2638 250.171 11.6898C250.171 10.8306 249.842 10.0463 248.523 10.0463C244.821 10.0463 241.964 15.4795 241.964 19.7362C241.964 22.4527 242.844 23.9287 244.675 23.9536C247.405 23.9928 251.822 19.9002 253.47 17.3975L254.029 17.9786C252.345 20.6239 247.624 24.9911 243.977 24.9911C240.9 24.9911 238.883 22.9162 238.883 19.5187Z" fill="#FFFDEC"/>
<path d="M252.955 19.4474C252.955 14.1212 257.939 9.15149 262.518 9.15149C264.535 9.15149 266 10.082 266 11.8324C266 15.0125 262.116 17.4438 256.913 17.8039C256.657 17.8039 256.438 17.8395 256.182 17.8395C256.072 18.4456 256.036 19.0552 256.036 19.6256C256.036 22.4848 256.916 23.9501 258.784 23.9501C261.056 23.9501 263.179 21.9822 264.612 19.8396L265.233 20.2674C263.585 22.8413 261.276 24.9875 258.016 24.9875C255.082 24.9911 252.955 23.0588 252.955 19.4474ZM256.328 17.1943C261.093 16.2638 263.621 13.262 263.621 11.4367C263.621 10.328 262.924 10.0428 262.266 10.0428C259.701 10.0463 257.172 13.5864 256.328 17.1943Z" fill="#FFFDEC"/>
<path d="M179.154 19.4474C179.154 14.1212 184.138 9.15149 188.717 9.15149C190.734 9.15149 192.199 10.082 192.199 11.8324C192.199 15.0125 188.315 17.4438 183.112 17.8039C182.856 17.8039 182.637 17.8395 182.381 17.8395C182.271 18.4456 182.235 19.0552 182.235 19.6256C182.235 22.4848 183.115 23.893 184.983 23.9501C188.732 24.0677 195.21 16.057 196.639 13.9144L196.412 15.451C194.764 18.0249 189.272 24.9875 184.215 24.9875C181.277 24.9911 179.154 23.0588 179.154 19.4474ZM182.523 17.1943C187.288 16.2638 189.817 13.262 189.817 11.4367C189.817 10.328 189.119 10.0428 188.461 10.0428C185.896 10.0463 183.367 13.5864 182.523 17.1943Z" fill="#FFFDEC"/>
<path d="M206.084 19.4474C206.084 14.1212 211.069 9.15149 215.647 9.15149C217.664 9.15149 219.129 10.082 219.129 11.8324C219.129 15.0125 215.245 17.4438 210.042 17.8039C209.786 17.8039 209.567 17.8395 209.311 17.8395C209.201 18.4456 209.165 19.0552 209.165 19.6256C209.165 22.4848 210.045 23.893 211.913 23.9501C215.662 24.0677 222.14 16.057 223.569 13.9144L223.343 15.451C221.695 18.0249 216.203 24.9875 211.145 24.9875C208.211 24.9911 206.084 23.0588 206.084 19.4474ZM209.457 17.1943C214.222 16.2638 216.751 13.262 216.751 11.4367C216.751 10.328 216.053 10.0428 215.395 10.0428C212.83 10.0463 210.301 13.5864 209.457 17.1943Z" fill="#FFFDEC"/>
</g>
<defs>
<clipPath id="clip0">
<rect width="266" height="34" fill="white"/>
</clipPath>
</defs>
</svg>
