<svg width="266" height="34" viewBox="0 0 266 34" fill="none" xmlns="http://www.w3.org/2000/svg">
<g clip-path="url(#clip0)">
<path d="M0 32.0677C0 30.9233 1.20949 29.9216 2.1632 29.5294L2.60168 29.8503C2.49206 30.7094 2.45552 31.1016 2.45552 31.672C2.45552 32.5668 2.67476 33.1016 3.51885 33.1016C7.18386 33.1016 9.01453 24.8414 10.9219 14.5811C11.2508 12.7594 11.5833 11.4367 11.5833 10.9697C11.5833 10.7914 11.5102 10.5062 10.9987 10.4349C10.1546 10.328 9.168 10.2923 8.61624 10.2567L8.50662 10.1497L8.61624 9.50446H12.0985C13.6296 3.75401 16.4542 0 20.2251 0C22.3153 0 23.1922 0.787879 23.1922 1.75045C23.1922 2.85918 22.0193 4.00356 20.956 4.50267L20.5175 4.25312C20.6271 3.53654 20.7367 2.93048 20.7367 2.32086C20.7367 1.49733 20.554 0.891266 19.6368 0.891266C17.2544 0.891266 16.0084 5.3262 15.2045 9.50802H18.7599V10.1533L18.6137 10.2602C17.2581 10.3672 16.4505 10.4029 15.5005 10.5098C15.2081 10.5455 14.9889 10.6524 14.9158 11.0089C14.8062 11.508 14.7331 11.9037 14.66 12.3672C12.7892 22.9519 9.01453 34 3.04017 34C0.990247 34 0 33.2121 0 32.0677Z" fill="black"/>
<path d="M17.043 19.3404C17.043 14.2638 20.9272 9.15149 25.9844 9.15149C29.6494 9.15149 31.6263 11.5472 31.6263 14.7985C31.6263 19.9465 27.5959 24.9875 22.7214 24.9875C19.2025 24.9911 17.043 22.7736 17.043 19.3404ZM28.6226 14.0499C28.6226 11.2977 27.9613 10.0107 26.021 10.0107C21.6982 10.0107 20.0466 17.1978 20.0466 20.164C20.0466 22.7023 20.5947 24.1319 22.6848 24.1319C26.8614 24.1319 28.6226 17.1586 28.6226 14.0499Z" fill="black"/>
<path d="M32.3965 24.4885L34.4501 16.2675C34.8885 14.517 35.3672 12.1926 35.3672 11.3691C35.3672 10.296 34.1943 10.296 32.9117 10.2604L32.8021 10.1534L32.9482 9.50812H35.2211C36.6863 9.50812 38.0054 9.36552 39.2515 9.11597L39.3611 9.25857C38.9592 10.4386 36.7229 17.7327 36.394 18.7666L36.5402 18.8735C39.6169 12.0821 41.8166 9.14805 44.126 9.14805C45.5182 9.14805 45.9932 10.0429 45.9932 11.2229C45.9932 11.3299 45.9932 11.4368 45.9932 11.4725L45.6643 11.7577C41.1589 11.9716 39.1053 14.9769 37.1979 19.337C36.5 20.9092 35.9153 23.2693 35.5499 24.5206L35.4403 24.6276H32.5098L32.3965 24.4885Z" fill="black"/>
<path d="M80.9815 19.1622C79.8085 21.4153 77.9779 23.9537 76.6587 23.9537C76.2203 23.9537 76.0376 23.6328 76.0376 23.0945C76.0376 21.1622 78.2373 14.9447 79.5929 9.65062L79.4833 9.50802H76.297L76.1143 9.65062C75.4931 12.0463 75.1606 13.262 73.8415 16.0499C72.3397 19.1943 69.1497 23.8431 66.9536 23.8431C66.3689 23.8431 65.9268 23.4153 65.9268 22.5918C65.9268 19.8752 69.9938 12.7594 70.1765 9.25847L70.0668 9.11586C68.8208 9.36542 67.6113 9.50802 65.5212 9.50802H63.4713H59.9159C60.7234 5.3262 61.9695 0.891266 64.3483 0.891266C65.2654 0.891266 65.4481 1.49733 65.4481 2.32086C65.4481 2.92692 65.3385 3.53654 65.2289 4.25312L65.6674 4.50267C66.7307 4.00356 67.9036 2.85918 67.9036 1.75045C67.9036 0.784314 67.023 0 64.9366 0C61.1619 0 58.341 3.75401 56.8027 9.50802H53.3203L53.2107 10.1533L53.3203 10.2602C53.8685 10.2959 54.8587 10.3316 55.7028 10.4385C56.2144 10.5098 56.2874 10.795 56.2874 10.9733C56.2874 11.4367 55.9586 12.7594 55.626 14.5847C53.7223 24.8449 51.888 33.1052 48.223 33.1052C47.3789 33.1052 47.1596 32.5704 47.1596 31.6756C47.1596 31.1052 47.1962 30.7094 47.3058 29.8538L46.8673 29.533C45.9136 29.9251 44.7041 30.9269 44.7041 32.0713C44.7041 33.2157 45.6944 34.0036 47.7443 34.0036C53.7186 34.0036 57.4896 22.9554 59.3605 12.3743C59.4336 11.9109 59.5066 11.5152 59.6163 11.016C59.6893 10.6595 59.9086 10.5526 60.2009 10.5169C61.0669 10.4207 61.816 10.3815 62.9634 10.2923L63.8659 10.2638C64.2313 10.2638 64.8927 10.2995 65.2947 10.3708C65.956 10.4777 66.358 10.7986 66.358 11.4438C66.358 14.0535 63.1717 18.8093 63.1717 21.8111C63.1717 23.9572 64.4908 24.9947 66.3214 24.9947C69.1789 24.9947 72.0364 21.8111 75.1533 15.3405L75.2994 15.4118C74.163 18.7736 73.6149 20.4884 73.6149 22.0606C73.6149 23.918 74.5321 24.9911 76.1801 24.9911C78.0107 24.9911 79.772 23.1337 81.6392 19.5223L80.9815 19.1622Z" fill="black"/>
<path d="M110.736 19.1622C109.563 21.4153 107.732 23.9536 106.413 23.9536C105.975 23.9536 105.792 23.6328 105.792 23.0945C105.792 21.1622 107.992 14.9447 109.347 9.6506L109.238 9.508H106.052L105.869 9.6506C105.244 12.0463 104.915 13.262 103.596 16.0499C102.094 19.1943 98.9042 23.8431 96.7081 23.8431C96.1235 23.8431 95.6813 23.4153 95.6813 22.5918C95.6813 19.8752 99.7483 12.7593 99.931 9.25844L99.8214 9.11584C98.5753 9.3654 97.3658 9.508 95.2757 9.508H92.674H92.495H88.8263L90.3647 4.00354H89.7033C88.0919 7.7932 86.4804 9.04454 83.3635 9.508L83.2174 10.1533L83.327 10.2602C83.8386 10.2602 85.0846 10.3672 85.7094 10.4741C84.0249 16.9804 82.8154 20.164 82.8154 22.057C82.8154 23.9893 83.8788 24.9875 85.6729 24.9875C87.5767 24.9875 89.4841 23.5579 91.4609 19.5187L90.7995 19.1622C89.3708 21.9501 87.6132 23.9893 86.1443 23.9893C85.6327 23.9893 85.4463 23.6328 85.4463 23.0232C85.4463 22.057 86.1041 19.7682 86.6193 17.7682L88.45 10.9768C88.5596 10.6203 88.7058 10.5133 89.0748 10.4777C89.4658 10.4456 91.344 10.3315 92.2538 10.2781L93.6168 10.2602C93.9822 10.2602 94.6436 10.2959 95.0455 10.3672C95.7069 10.4741 96.1088 10.795 96.1088 11.4403C96.1088 14.0499 92.9225 18.8057 92.9225 21.8075C92.9225 23.9536 94.2416 24.9911 96.0723 24.9911C98.9298 24.9911 101.787 21.8075 104.904 15.3369L105.05 15.4082C103.914 18.77 103.366 20.4848 103.366 22.057C103.366 23.9144 104.283 24.9875 105.931 24.9875C107.762 24.9875 109.523 23.1301 111.39 19.5187L110.736 19.1622Z" fill="black"/>
<path d="M112.53 24.4885L114.584 16.2675C115.022 14.517 115.501 12.1926 115.501 11.3691C115.501 10.296 114.328 10.296 113.045 10.2604L112.936 10.1534L113.082 9.50812H115.355C116.82 9.50812 118.139 9.36552 119.385 9.11597L119.495 9.25857C119.093 10.4386 116.857 17.7327 116.528 18.7666L116.674 18.8735C119.751 12.0821 121.95 9.14805 124.26 9.14805C125.652 9.14805 126.127 10.0429 126.127 11.2229C126.127 11.3299 126.127 11.4368 126.127 11.4725L125.798 11.7577C121.293 11.9716 119.239 14.9769 117.335 19.337C116.637 20.9092 116.053 23.2693 115.687 24.5206L115.578 24.6276H112.647L112.53 24.4885Z" fill="black"/>
<path d="M124.369 19.4474C124.369 14.1212 129.353 9.15149 133.932 9.15149C135.949 9.15149 137.414 10.082 137.414 11.8324C137.414 15.0125 133.53 17.4438 128.326 17.8039C128.071 17.8039 127.851 17.8395 127.592 17.8395C127.482 18.4456 127.446 19.0552 127.446 19.6256C127.446 22.4848 128.326 23.9501 130.194 23.9501C132.467 23.9501 134.59 21.9822 136.022 19.8396L136.643 20.2674C134.995 22.8413 132.686 24.9875 129.426 24.9875C126.492 24.9911 124.369 23.0588 124.369 19.4474ZM127.738 17.1943C132.503 16.2638 135.032 13.262 135.032 11.4367C135.032 10.328 134.334 10.0428 133.676 10.0428C131.111 10.0463 128.582 13.5864 127.738 17.1943Z" fill="black"/>
<path d="M144.046 24.4885L146.099 16.2675C146.538 14.517 147.017 12.1926 147.017 11.3691C147.017 10.296 145.844 10.296 144.561 10.2604L144.452 10.1534L144.598 9.50812H146.87C148.336 9.50812 149.655 9.36552 150.901 9.11597L151.01 9.25857C150.609 10.4386 148.372 17.7327 148.043 18.7666L148.19 18.8735C151.266 12.0821 153.466 9.14805 155.775 9.14805C157.168 9.14805 157.643 10.0429 157.643 11.2229C157.643 11.3299 157.643 11.4368 157.643 11.4725L157.314 11.7577C152.808 11.9716 150.755 14.9769 148.847 19.337C148.149 20.9092 147.565 23.2693 147.199 24.5206L147.09 24.6276H144.159L144.046 24.4885Z" fill="black"/>
<path d="M156.616 19.4474C156.616 14.1212 161.6 9.15149 166.179 9.15149C168.196 9.15149 169.661 10.082 169.661 11.8324C169.661 15.0125 165.777 17.4438 160.574 17.8039C160.318 17.8039 160.099 17.8395 159.843 17.8395C159.733 18.4456 159.697 19.0552 159.697 19.6256C159.697 22.4848 160.577 23.9002 162.444 23.9501C166.036 24.0499 172.234 16.606 173.662 14.4599L173.871 15.451C172.223 18.0249 166.91 24.9875 161.673 24.9875C158.739 24.9911 156.616 23.0588 156.616 19.4474ZM159.985 17.1943C164.75 16.2638 167.279 13.262 167.279 11.4367C167.279 10.328 166.581 10.0428 165.923 10.0428C163.358 10.0463 160.829 13.5864 159.985 17.1943Z" fill="black"/>
<path d="M162.551 32.0677C162.551 30.9233 163.76 29.9216 164.714 29.5294L165.152 29.8503C165.043 30.7094 165.006 31.1016 165.006 31.672C165.006 32.5668 165.226 33.1016 166.07 33.1016C169.735 33.1016 171.565 24.8414 173.473 14.5811C173.802 12.7594 174.134 11.4367 174.134 10.9697C174.134 10.7914 174.061 10.5062 173.549 10.4349C172.705 10.328 171.719 10.2923 171.167 10.2567L171.057 10.1497L171.167 9.50446H174.649C176.18 3.75401 179.005 0 182.776 0C184.866 0 185.743 0.787879 185.743 1.75045C185.743 2.85918 184.57 4.00356 183.507 4.50267L183.068 4.25312C183.178 3.53654 183.288 2.93048 183.288 2.32086C183.288 1.49733 183.105 0.891266 182.188 0.891266C179.805 0.891266 178.559 5.3262 177.755 9.50802H181.311V10.1533L181.165 10.2602C179.809 10.3672 179.001 10.4029 178.051 10.5098C177.759 10.5455 177.54 10.6524 177.467 11.0089C177.357 11.508 177.284 11.9037 177.211 12.3672C175.344 22.9483 171.569 33.9964 165.595 33.9964C163.541 34 162.551 33.2121 162.551 32.0677Z" fill="black"/>
<path d="M193.884 24.4885L195.937 16.2675C196.376 14.517 196.855 12.1926 196.855 11.3691C196.855 10.296 195.682 10.296 194.399 10.2604L194.289 10.1534L194.436 9.50812H196.708C198.174 9.50812 199.493 9.36552 200.739 9.11597L200.848 9.25857C200.446 10.4386 198.21 17.7327 197.881 18.7666L198.027 18.8735C201.104 12.0821 203.304 9.14805 205.613 9.14805C207.005 9.14805 207.48 10.0429 207.48 11.2229C207.48 11.3299 207.48 11.4368 207.48 11.4725L207.152 11.7577C202.646 11.9716 200.593 14.9769 198.689 19.337C197.991 20.9092 197.406 23.2693 197.041 24.5206L196.931 24.6276H194.001L193.884 24.4885Z" fill="black"/>
<path d="M231.148 22.1997C231.148 18.8735 234.481 14.3709 234.481 11.5473C234.481 10.5812 234.079 10.2247 233.417 10.2247C231.035 10.2247 227.593 15.3727 226.31 18.0536C224.955 20.8415 224.516 22.5598 224.001 24.5242L223.855 24.6311H220.924L220.814 24.4885L222.868 16.2675C223.416 14.05 223.785 12.157 223.785 11.3691C223.785 10.7238 223.42 10.4743 222.831 10.3673C222.466 10.296 221.732 10.2604 221.33 10.2604L221.22 10.1534L221.366 9.50812H223.602C225.068 9.50812 226.423 9.36552 227.669 9.11597L227.779 9.25857C227.377 10.4386 225.141 17.7327 224.812 18.7666L224.958 18.8735C227.962 12.6882 230.786 9.14805 234.046 9.14805C235.913 9.14805 237.159 10.2924 237.159 12.3637C237.159 15.9395 233.64 20.7666 233.64 23.1623C233.64 23.8432 234.006 23.9502 234.265 23.9502C235.255 23.9502 236.903 22.485 238.661 19.1587L239.359 19.5153C236.903 24.2354 234.999 24.9841 233.68 24.9841C232.361 24.9841 231.148 24.1677 231.148 22.1997Z" fill="black"/>
<path d="M238.884 19.5187C238.884 14.1925 243.685 9.15149 248.779 9.15149C251.673 9.15149 252.7 10.2602 252.7 11.3333C252.7 12.9412 251.015 14.0142 250.317 14.2638L249.806 13.9073C250.062 12.9055 250.171 12.2638 250.171 11.6898C250.171 10.8306 249.842 10.0463 248.523 10.0463C244.822 10.0463 241.964 15.4795 241.964 19.7362C241.964 22.4527 242.845 23.9287 244.675 23.9536C247.405 23.9928 251.823 19.9002 253.471 17.3975L254.03 17.9786C252.345 20.6239 247.624 24.9911 243.978 24.9911C240.901 24.9911 238.884 22.9162 238.884 19.5187Z" fill="black"/>
<path d="M252.955 19.4474C252.955 14.1212 257.939 9.15149 262.518 9.15149C264.535 9.15149 266 10.082 266 11.8324C266 15.0125 262.116 17.4438 256.912 17.8039C256.657 17.8039 256.437 17.8395 256.182 17.8395C256.072 18.4456 256.035 19.0552 256.035 19.6256C256.035 22.4848 256.916 23.9501 258.783 23.9501C261.056 23.9501 263.179 21.9822 264.611 19.8396L265.233 20.2674C263.585 22.8413 261.275 24.9875 258.016 24.9875C255.082 24.9911 252.955 23.0588 252.955 19.4474ZM256.328 17.1943C261.093 16.2638 263.621 13.262 263.621 11.4367C263.621 10.328 262.923 10.0428 262.266 10.0428C259.7 10.0463 257.172 13.5864 256.328 17.1943Z" fill="black"/>
<path d="M179.154 19.4474C179.154 14.1212 184.138 9.15149 188.717 9.15149C190.734 9.15149 192.199 10.082 192.199 11.8324C192.199 15.0125 188.315 17.4438 183.112 17.8039C182.856 17.8039 182.637 17.8395 182.381 17.8395C182.271 18.4456 182.235 19.0552 182.235 19.6256C182.235 22.4848 183.115 23.893 184.983 23.9501C188.732 24.0677 195.21 16.057 196.639 13.9144L196.412 15.451C194.764 18.0249 189.272 24.9875 184.215 24.9875C181.277 24.9911 179.154 23.0588 179.154 19.4474ZM182.523 17.1943C187.288 16.2638 189.817 13.262 189.817 11.4367C189.817 10.328 189.119 10.0428 188.461 10.0428C185.896 10.0463 183.367 13.5864 182.523 17.1943Z" fill="black"/>
<path d="M206.084 19.4474C206.084 14.1212 211.068 9.15149 215.647 9.15149C217.664 9.15149 219.129 10.082 219.129 11.8324C219.129 15.0125 215.245 17.4438 210.041 17.8039C209.786 17.8039 209.566 17.8395 209.311 17.8395C209.201 18.4456 209.164 19.0552 209.164 19.6256C209.164 22.4848 210.045 23.893 211.912 23.9501C215.661 24.0677 222.14 16.057 223.569 13.9144L223.342 15.451C221.694 18.0249 216.202 24.9875 211.145 24.9875C208.211 24.9911 206.084 23.0588 206.084 19.4474ZM209.457 17.1943C214.222 16.2638 216.75 13.262 216.75 11.4367C216.75 10.328 216.052 10.0428 215.394 10.0428C212.829 10.0463 210.301 13.5864 209.457 17.1943Z" fill="black"/>
</g>
<defs>
<clipPath id="clip0">
<rect width="266" height="34" fill="white"/>
</clipPath>
</defs>
</svg>
